<svg width="800" height="800" viewBox="0 0 1000 1000" xmlns="http://www.w3.org/2000/svg" xml:space="preserve">
  <path d="M444.89 11.46c-11.95 3.04-29.98 12.97-40.92 22.49-11.14 9.72-24.51 29.17-26.54 38.29l-1.22 5.88-75.37.61c-73.14.61-75.77.81-86.31 5.27-31 13.17-56.52 42.75-62.81 72.94-1.62 7.7-2.23 116.7-2.23 377.84 0 400.53-.61 377.23 11.35 401.14 11.35 22.29 41.94 46.4 65.84 51.87 5.67 1.42 102.51 2.23 273.3 2.23 286.07 0 273.1.41 295.79-11.14 13.57-6.89 35.66-28.77 42.95-42.75 12.36-23.1 11.75.61 11.75-401.35 0-261.15-.61-370.14-2.23-377.84-7.29-35.05-41.13-68.88-76.38-76.38-6.69-1.42-36.27-2.23-79.42-2.23h-68.48l-1.42-5.67c-1.82-8.71-16.21-29.58-26.94-39.1-5.27-4.66-16.41-11.75-24.72-15.8l-15.19-7.29-51.66-.41c-28.34-.22-55.08.38-59.14 1.4zM554.7 73.25c11.95 6.08 12.16 7.9 12.16 87.12v71.92H686.4v54.7H311.6v-54.7h121.56v-71.72c0-41.74.81-73.95 2.03-76.99 1.01-2.84 4.86-7.09 8.51-9.32 6.28-3.65 10.33-4.05 55.92-4.05 40.09 0 50.22.61 55.08 3.04zM372.36 155.3v16.21h-41.94c-47 0-52.07 1.22-65.24 14.38-14.18 14.38-14.38 15.2-14.38 92.38v69.49h496.36v-69.49c0-76.18-.2-76.79-13.37-92.38-10.74-12.97-17.02-14.38-64.02-14.38h-42.14v-32.62l71.72.61c68.88.61 72.12.81 77.59 4.86 3.04 2.23 7.29 7.29 9.12 11.14 3.44 6.48 3.65 28.77 3.65 378.65s-.2 372.17-3.65 378.65c-1.82 3.85-6.08 8.91-9.12 11.14-5.67 4.25-5.88 4.25-276.95 4.25s-271.28 0-276.95-4.25c-3.04-2.23-7.29-7.29-9.12-11.14-3.44-6.48-3.65-28.77-3.65-378.04 0-414.71-1.01-383.72 13.98-391.62 6.69-3.65 12.36-3.85 77.8-4.05h70.3v16.21z"/>
  <path d="M301.46 471.35v30.39h397.09v-60.78H301.46v30.39zm0 131.69v30.39h397.09v-60.78H301.46v30.39zm0 125.61v30.39h192.46v-60.78H301.46v30.39z" fill="#ec942d"/>
</svg>
